<?xml version="1.0" encoding="utf-8"?>
<!-- Generator: Adobe Illustrator 22.0.1, SVG Export Plug-In . SVG Version: 6.00 Build 0)  -->
<svg version="1.1" xmlns="http://www.w3.org/2000/svg" xmlns:xlink="http://www.w3.org/1999/xlink" x="0px" y="0px"
	 viewBox="0 0 3600 1400" style="enable-background:new 0 0 3600 1400;" xml:space="preserve">
<style type="text/css">
	.st0{fill:#B3E5FC;}
	.st1{fill:#FFFFFF;}
	.st2{fill:#4FC3F7;}
	.st3{fill:#03A9F4;}
	.st4{fill:#0288D1;}
	.st5{fill:#01579B;}
</style>
<g id="sky">
	<rect class="st0" width="3600" height="1400"/>
</g>
<g id="Layer_6">
	<path class="st1" d="M584.8,456.6H563c0.1-1.1,0.1-2.2,0.1-3.4c0-29.4-23.9-53.3-53.3-53.3c-18,0-33.9,8.9-43.5,22.5
		c-8.3,11.7-24.3,14.8-36.4,7.2h0c-12.5-7.8-16.4-24.5-8.7-37.1c11-17.9,17.4-39.1,17.4-61.7c0-65.1-52.3-117.7-117.5-117.9
		c-65.3-0.2-118.3,52.6-118.3,117.9c0,16.3,3.3,31.7,9.2,45.8c-3-0.5-6.1-0.8-9.2-0.8c-29.4,0-53.3,23.9-53.3,53.3
		c0,0.1,0,0.2,0,0.3c0.1,14.9-11.8,27.1-26.7,27.1H93.7c-18.8,0-34.6,15.4-34.2,34.2c0.3,18.2,15.2,32.9,33.5,32.9h492.5
		c18.3,0,33.2-14.7,33.5-32.9C619.4,472,603.6,456.6,584.8,456.6z"/>
	<path class="st1" d="M2592.8,462.8h-8.4c0-0.4,0-0.9,0-1.3c0-11.3-9.2-20.4-20.4-20.4c-6.9,0-13,3.4-16.7,8.6
		c-3.2,4.5-9.3,5.7-14,2.7h0c-4.8-3-6.3-9.4-3.3-14.2c4.2-6.9,6.7-15,6.7-23.7c0-25-20.1-45.1-45.1-45.2
		c-25.1-0.1-45.4,20.2-45.4,45.2c0,6.2,1.3,12.2,3.5,17.6c-1.2-0.2-2.3-0.3-3.5-0.3c-11.3,0-20.4,9.2-20.4,20.4c0,0,0,0.1,0,0.1
		c0,5.7-4.5,10.4-10.3,10.4h-11.2c-7.2,0-13.3,5.9-13.1,13.1c0.1,7,5.8,12.6,12.9,12.6h189c7,0,12.7-5.6,12.9-12.6
		C2606.1,468.7,2600,462.8,2592.8,462.8z"/>
	<path class="st1" d="M3448.4,464.9c8.9-14.7,14.1-31.9,14.1-50.3c0.1-52.7-42.4-96.1-95.1-97.1c-14.4-0.3-28,2.6-40.4,7.9
		c-10.7-28.5-38.3-48.8-70.6-48.6c-41.3,0.2-75,34.5-74.5,75.8c0.1,5.5,0.7,10.9,1.9,16.1c2.3,9.7-2.9,19.6-12.3,23.1l-0.3,0.1
		c-8.5,3.1-18,0.1-23-7.4c-9.7-14.5-26.1-24-44.8-24.2c-29.5-0.2-54,23.7-54.5,53.2c-0.2,11.4,3.2,22,9,30.9l-48.5,0
		c-20.5,0-37.7,16.3-38.1,36.8c-0.4,21,16.6,38.1,37.5,38.1h432.6c15.4,0,28.4-12.6,28.1-28C3469.4,478.4,3460.4,467.7,3448.4,464.9
		z"/>
	<path class="st1" d="M1064.6,570.9c3-4.9,4.7-10.7,4.7-16.9c0-17.7-14.2-32.3-31.9-32.6c-4.8-0.1-9.4,0.9-13.5,2.7
		c-3.6-9.6-12.9-16.4-23.7-16.3c-13.9,0.1-25.2,11.6-25,25.4c0,1.9,0.2,3.7,0.6,5.4c0.8,3.3-1,6.6-4.1,7.7l-0.1,0
		c-2.8,1-6,0-7.7-2.5c-3.2-4.9-8.8-8.1-15-8.1c-9.9-0.1-18.1,8-18.3,17.9c-0.1,3.8,1.1,7.4,3,10.4h-16.3c-6.9,0-12.7,5.5-12.8,12.4
		c-0.1,7,5.6,12.8,12.6,12.8h145.2c5.2,0,9.5-4.2,9.4-9.4C1071.7,575.5,1068.7,571.9,1064.6,570.9z"/>
</g>
<g id="_x34_">
	<polygon class="st2" points="3450,777 3450,917 3405,917 3405,881 3282.3,881 3282.3,917 3282.3,928 3282.3,1045 2947.7,1045 
		2947.7,851 2859.7,851 2859.7,906.3 2805,906.3 2805,791 2780.3,791 2780.3,697.3 2702.7,697.3 2631.7,768.3 2631.7,791 2597,791 
		2597,893.7 2255.7,893.7 2255.7,954.3 1954.3,954.3 1954.3,830.3 1932,830.3 1932,815.5 1876.5,815.5 1876.5,830.3 1803,830.3 
		1803,1045 1433.7,1045 1433.7,901.7 1303.7,901.7 1259,857 1170.3,857 1170.3,900.3 1125,900.3 1125,782.3 1011.7,782.3 
		1011.7,796.3 955,796.3 955,988.3 749.7,988.3 749.7,802.3 625,802.3 625,887 302,887 302,940 155.5,940 155.5,866.5 106,817 
		106,777 0,777 0,1400 3600,1400 3600,777 	"/>
</g>
<g id="_x33__1_">
	<polygon class="st3" points="3487,869 3487,1163.7 3255.7,1163.7 3255.7,984.3 3159.7,984.3 3159.7,799.7 3137.5,799.7 
		3137.5,784.5 3063,784.5 3063,799.7 3009.7,799.7 3009.7,895.7 2991.5,895.7 2991.5,964.1 2894.5,964.1 2894.5,943.5 2765.5,943.5 
		2765.5,964.1 2723,964.1 2723,1130.3 2575.7,1130.3 2575.7,849.7 2433,849.7 2433,939.7 2286.3,939.7 2286.3,775.8 2183.5,775.8 
		2136.3,823 2040.3,823 2040.3,1093.7 1885,1093.7 1885,1007.7 1845,1007.7 1845,939.7 1833.7,939.7 1833.7,926 1780.7,926 
		1780.7,939.7 1761,939.7 1761,930.7 1733,930.7 1733,939.7 1713.7,939.7 1713.7,1166.3 1602.3,1166.3 1602.3,850.3 1575.5,850.3 
		1575.5,831.8 1419.8,831.8 1419.8,850.3 1393,850.3 1393,1031 1321,1031 1321,931 1161,931 1161,953 1076.3,953 1076.3,1058.3 
		994.3,1058.3 994.3,874.7 897.3,874.7 825,947 825,1063 687.7,1063 687.7,737.6 571.7,737.6 571.7,762.9 512.3,762.9 512.3,955.7 
		429,955.7 429,912.3 309,912.3 309,988.3 174.3,988.3 174.3,1106.6 93.2,1106.6 93.2,883 0,883 0,1400 3600,1400 3600,869 	"/>
</g>
<g id="_x32__1_">
	<polygon class="st4" points="3576.3,1169 3576.3,1061.8 3504.3,1061.8 3504.3,1040 3405.7,1040 3405.7,1061.8 3374,1061.8 
		3374,1255 3336,1255 3336,749.8 3312,749.8 3312,722.5 3284,722.5 3256.7,749.8 3183,749.8 3183,1039.6 3057,1039.6 3057,999.1 
		2984,999.1 2984,984.5 2925,984.5 2925,999.1 2925,1195.6 2867,1195.6 2867,1080.5 2773.5,1080.5 2773.5,1044.1 2635.5,1044.1 
		2635.5,732.1 2604.3,732.1 2604.3,712.3 2505.7,712.3 2505.7,732.1 2475.1,732.1 2475.1,1078.6 2388.1,1078.6 2388.1,696.1 
		2355.1,696.1 2355.1,673.6 2242.6,673.6 2242.6,696.1 2209.6,696.1 2209.6,1035.1 2163.1,1035.1 2163.1,1195.6 2115.1,1195.6 
		2115.1,907.6 2103.5,907.6 2103.5,894.5 2063.5,894.5 2063.5,907.6 1986.8,907.6 1986.8,1013.3 1941.1,1059.1 1788.5,1059.1 
		1788.5,1044.5 1750.6,1044.5 1750.6,1059.1 1750.6,1074 1750.6,1120.6 1697,1120.6 1697,1240.6 1636.6,1240.6 1636.6,943 
		1616.3,943 1616.3,930.4 1573.5,930.4 1573.5,943 1547.5,943 1547.5,935.9 1508.5,935.9 1508.5,943 1483.6,943 1483.6,1160 
		1441,1160 1441,1021 1337,917 1337,780 1275,718 1275,645 1249.5,645 1249.5,632.5 1205.5,632.5 1205.5,981.5 1139,1048 1098,1048 
		1098,1153 1048,1153 1048,1001 925,1001 925,1103 897,1103 897,1039 779,1039 779,922 727,922 727,949 642,949 642,1235 561,1235 
		561,1198 510,1147 510,1015 477,1015 477,805 409.5,805 365.5,764.5 288,764.5 288,805 288,835 269,835 269,1202.9 223,1202.9 
		223,1034.6 118.3,1034.6 32.3,1120.6 32.3,1169 0,1169 0,1400 3600,1400 3600,1169 	"/>
</g>
<g id="_x31__1_">
	<polygon class="st5" points="3462.9,1062.8 3462.9,1200.3 3430.7,1200.3 3430.7,1207.2 3430.7,1290.6 3371.5,1290.6 3371.5,1121.4 
		3273,1121.4 3273,1233.4 3232.2,1233.4 3232.2,1189.2 3232.2,1181.4 3216.7,1181.4 3216.7,1174 3166.3,1174 3166.3,1181.4 
		3073.8,1181.4 3073.8,1189.2 3073.8,1272.4 3057.5,1272.4 3057.5,1241.7 3057.5,1235.6 3057.5,1228.5 3045,1228.5 3045,1216.4 
		3045,1207.3 2935.5,1207.3 2935.5,1134.9 2935.5,1129.3 2843.7,1129.3 2837,1134.9 2788,1134.9 2788,1175.8 2779.8,1182.7 
		2779.8,1197.3 2779.8,1290.4 2705.2,1290.4 2705.2,1316.1 2649,1316.1 2649,1192.1 2622,1192.1 2622,1182.3 2595.5,1182.3 
		2595.5,1192.1 2574.3,1192.1 2574.3,1182.3 2507.2,1182.3 2507.2,1256.1 2490.1,1256.1 2490.1,1148.2 2457.2,1116.6 2456.2,1115.6 
		2437.7,1097.8 2328.3,1097.8 2328.3,1084 2204.6,1084 2204.6,1097.8 2182,1097.8 2182,1256.1 2143.3,1256.1 2143.3,1164.7 
		2050.1,1164.7 2050.1,1178.2 2008.9,1178.2 2008.9,1142 2008.3,1142 1939,1142 1930.2,1142 1930.2,1149.8 1930.2,1178.2 
		1930.2,1225.8 1913.1,1225.8 1913.1,1147.2 1913.1,1142 1894.7,1142 1894.7,1135.3 1821,1135.3 1821,1142 1802.6,1142 
		1802.6,1147.2 1802.6,1176.7 1741.6,1176.7 1741.6,1192.6 1661.3,1192.6 1661.3,1200.4 1661.3,1320 1637,1320 1637,1276.8 
		1581.3,1276.8 1581.3,1320 1532.3,1320 1532.3,1252.1 1451.4,1252.1 1451.4,1167.1 1436.2,1167.1 1409,1167.1 1409,1156.5 
		1396.8,1156.5 1357.3,1156.5 1357.3,1167.1 1337.7,1167.1 1337.7,1156.5 1325.5,1156.5 1286,1156.5 1286,1167.1 1261.9,1167.1 
		1261.9,1169.7 1261.9,1208.3 1235.4,1208.3 1235.4,1210.8 1235.4,1270 1223,1270 1223,1133.7 1209,1133.7 1189.5,1133.7 
		1186.5,1133.7 1165.6,1133.7 1162.7,1133.7 1141.7,1133.7 1138.8,1133.7 1131,1133.7 1096.4,1169.9 1096.4,1262.4 1027.3,1262.4 
		1027.3,1172.2 1027.3,1169.9 1009.8,1169.9 1009.8,1162.8 1009.8,1161.6 987.5,1161.6 977.5,1088.3 977.5,1088.3 977.1,1085.4 
		956.9,1085.4 953.5,1085.4 953.1,1088.3 953.2,1088.3 945.1,1161.6 922.8,1161.6 922.8,1162.8 922.8,1169.9 909.2,1169.9 
		905.3,1169.9 905.3,1172.2 905.3,1255 876,1255 876,1211.6 876,1209.1 791,1209.1 791,1211.6 791,1293 757,1293 757,1295.5 
		757,1311.8 722.6,1311.8 722.6,1252.9 722.6,1236 677.9,1236 677.9,1252.9 674,1252.9 674,1082.7 657.2,1082.7 642.7,1082.7 
		642.7,1074.5 604,1074.5 604,1082.7 492,1082.7 492,1096.2 492,1251.4 463,1251.4 463,1199.3 426.5,1199.3 426.5,1182.5 
		317.5,1182.5 317.5,1199.3 258,1199.3 258,1338 155.5,1338 155.5,1250.5 136.3,1250.5 136.3,1062.8 107,1062.8 107,1050 30.3,1050 
		30.3,1062.8 0,1062.8 0,1400 3600,1400 3600,1062.8 	"/>
</g>
<g id="Text">
</g>
</svg>
